# xmcd
#
# Track frame offsets:
#	150
#	21522
#	33825
#	52219
#	66409
#	77074
#	90136
#	105680
#	119119
#	140205
#	152205
#	173667
#	182256
#	199109
#	217611
#	235401
#	246729
#	264830
#
# Disc length: 3697 seconds
#
# Revision: 0
# Processed by: cddbd v1.5.2PL0 Copyright (c) Steve Scherf et al.
# Submitted via: dBpowerAMP V4.0
#
DISCID=000e6f12
DTITLE=VVAA - Working Man's Soul
DYEAR=2006
DGENRE=Soul
TTITLE0=Work Song
TTITLE1=Vehicle
TTITLE2=Memphis Underground
TTITLE3=Aquarius
TTITLE4=Don't Bother Me No More
TTITLE5=Meadowbank
TTITLE6=Hang In There
TTITLE7=Funky Nassau
TTITLE8=Hip Flask
TTITLE9=Popsi
TTITLE10=Watermelon Man
TTITLE11=Light My Fire
TTITLE12=Chain of Fools
TTITLE13=Dark Orchid
TTITLE14=Time Is Tight
TTITLE15=Little Bit of Love
TTITLE16=Come Home Baby
TTITLE17=Flyin' Hi
EXTD=
EXTT0=
EXTT1=
EXTT2=
EXTT3=
EXTT4=
EXTT5=
EXTT6=
EXTT7=
EXTT8=
EXTT9=
EXTT10=
EXTT11=
EXTT12=
EXTT13=
EXTT14=
EXTT15=
EXTT16=
EXTT17=
PLAYORDER=
